<svg width="20" height="20" viewBox="0 0 20 20" fill="none" xmlns="http://www.w3.org/2000/svg">
<path d="M10 1.66663C5.4 1.66663 1.66666 5.39996 1.66666 9.99996C1.66666 14.6 5.4 18.3333 10 18.3333C14.6 18.3333 18.3333 14.6 18.3333 9.99996C18.3333 5.39996 14.6 1.66663 10 1.66663ZM5.89166 15.2333C6.25 14.4833 8.43333 13.75 10 13.75C11.5667 13.75 13.7583 14.4833 14.1083 15.2333C12.975 16.1333 11.55 16.6666 10 16.6666C8.45 16.6666 7.025 16.1333 5.89166 15.2333ZM15.3 14.025C14.1083 12.575 11.2167 12.0833 10 12.0833C8.78333 12.0833 5.89166 12.575 4.7 14.025C3.85 12.9083 3.33333 11.5166 3.33333 9.99996C3.33333 6.32496 6.325 3.33329 10 3.33329C13.675 3.33329 16.6667 6.32496 16.6667 9.99996C16.6667 11.5166 16.15 12.9083 15.3 14.025Z" fill="#5F6368"/>
<path d="M10 5C8.38333 5 7.08333 6.3 7.08333 7.91667C7.08333 9.53333 8.38333 10.8333 10 10.8333C11.6167 10.8333 12.9167 9.53333 12.9167 7.91667C12.9167 6.3 11.6167 5 10 5ZM10 9.16667C9.30833 9.16667 8.75 8.60833 8.75 7.91667C8.75 7.225 9.30833 6.66667 10 6.66667C10.6917 6.66667 11.25 7.225 11.25 7.91667C11.25 8.60833 10.6917 9.16667 10 9.16667Z" fill="#5F6368"/>
</svg>
