<svg width="22" height="41" viewBox="0 0 22 41" fill="none" xmlns="http://www.w3.org/2000/svg">
<path fill-rule="evenodd" clip-rule="evenodd" d="M8.97899 25.211C7.2005 22.9934 5.99678 20.2757 6.19792 17.2304C6.77746 8.45625 18.2754 10.3865 20.512 14.8149C22.7486 19.2434 22.4829 30.4765 19.5923 31.268C18.4395 31.5837 15.9838 30.8105 13.4844 29.2102L15.0532 41H5.79004L8.97899 25.211Z" fill="#B28B67"/>
<path fill-rule="evenodd" clip-rule="evenodd" d="M16.8532 9.99169C15.5874 9.58169 13.75 9.44265 12.9771 9.53671C13.4168 8.41765 13.5912 7.17088 13.449 5.95693C13.3107 4.77735 12.8146 3.77297 12.3557 2.72051C12.1441 2.23539 11.9044 1.75291 11.547 1.38185C11.1829 1.00382 10.7221 0.754289 10.2388 0.63524C9.74424 0.513382 9.22711 0.523529 8.73179 0.634116C8.51267 0.683031 8.31606 0.789454 8.10116 0.848615C7.8811 0.90923 7.77435 0.762915 7.61461 0.615872C7.22968 0.261569 6.66536 0.0866651 6.17836 0.0240672C5.63198 -0.0461324 5.06503 0.0414188 4.54394 0.23222C4.03674 0.417965 3.54948 0.719585 3.18277 1.15899C3.01949 1.35459 2.87129 1.57722 2.77496 1.82301C2.73546 1.92389 2.72893 1.98364 2.63417 2.02059C2.54654 2.0548 2.44404 2.05579 2.35359 2.08835C1.47906 2.40299 0.731346 3.12078 0.324218 4.0424C0.0866894 4.58007 -0.025825 5.52671 0.00499251 6.58774C0.03581 7.64878 0.937702 10.4173 1.78124 11.4271C2.53418 12.3285 3.64093 12.9233 4.70902 13.1837C4.00007 14.0445 3.52815 15.1202 3.17917 16.2141C2.80011 17.4025 2.5655 18.6372 2.47887 19.8953C2.39658 21.0906 2.38896 22.3546 2.65276 23.5244C2.89953 24.6184 3.42727 25.5158 4.30827 26.0851C4.71183 26.3459 5.14602 26.5419 5.58273 26.7209C6.01311 26.8974 6.44479 27.069 6.89562 27.168C7.74885 27.3553 8.73196 27.3232 9.38921 26.6017C9.62608 26.3416 9.8866 26.0148 10.0594 25.6971C10.1216 25.5829 10.159 25.5081 10.0835 25.3965C9.99309 25.2627 9.8468 25.1602 9.73062 25.0556C9.06809 24.459 8.65798 23.6625 8.55459 22.716C8.4497 21.7557 8.69255 20.5161 9.57151 20.097C10.6565 19.5796 11.8514 20.1735 12.8157 20.727C13.2256 19.1904 14.0671 17.8069 15.3865 17.1021C16.8461 16.3223 18.5211 16.2311 20.0211 15.562C20.4119 15.3877 20.8101 15.1898 21.0979 14.8345C21.2181 14.6861 21.3592 14.4935 21.4072 14.2971C21.4703 14.0392 21.3137 13.823 21.1927 13.6219C20.5513 12.5557 18.1189 10.4017 16.8532 9.99169Z" fill="#191847"/>
</svg>
