<svg width="25" height="25" viewBox="0 0 25 25" fill="none" xmlns="http://www.w3.org/2000/svg">
<path d="M12.1429 1C14.0933 1 15.9639 1.77482 17.3431 3.15402C18.7223 4.53322 19.4971 6.40381 19.4971 8.35429C19.4971 16.5314 22.48 18.1429 23.2857 18.1429H1C1.82286 18.1429 4.78857 16.5143 4.78857 8.35429C4.78857 6.40381 5.5634 4.53322 6.94259 3.15402C8.32179 1.77482 10.1924 1 12.1429 1V1Z" stroke="white" stroke-width="1.71429" stroke-linecap="round" stroke-linejoin="round"/>
<path d="M9.57153 21.28C9.71972 21.8492 10.0526 22.3531 10.5179 22.7128C10.9833 23.0725 11.5548 23.2677 12.143 23.2677C12.7311 23.2677 13.3027 23.0725 13.768 22.7128C14.2334 22.3531 14.5662 21.8492 14.7144 21.28" stroke="white" stroke-width="1.71429" stroke-linecap="round" stroke-linejoin="round"/>
</svg>
