<svg width="8" height="7" viewBox="0 0 8 7" fill="none" xmlns="http://www.w3.org/2000/svg">
<path d="M2.47482 5.23822L0.80665 3.56823C0.763028 3.52402 0.711076 3.48893 0.653805 3.46498C0.596534 3.44103 0.535084 3.42869 0.473016 3.42869C0.410948 3.42869 0.349498 3.44103 0.292227 3.46498C0.234956 3.48893 0.183004 3.52402 0.139382 3.56823C0.0952284 3.6119 0.0601723 3.6639 0.0362462 3.72124C0.0123202 3.77857 0 3.84009 0 3.90222C0 3.96436 0.0123202 4.02588 0.0362462 4.08321C0.0601723 4.14054 0.0952284 4.19255 0.139382 4.23622L2.13642 6.23544C2.3223 6.42152 2.62257 6.42152 2.80845 6.23544L7.86062 1.18253C7.90477 1.13886 7.93983 1.08685 7.96375 1.02952C7.98768 0.972185 8 0.910667 8 0.848532C8 0.786396 7.98768 0.724879 7.96375 0.667546C7.93983 0.610212 7.90477 0.558204 7.86062 0.514534C7.817 0.470332 7.76504 0.435238 7.70777 0.411286C7.6505 0.387333 7.58905 0.375 7.52698 0.375C7.46492 0.375 7.40347 0.387333 7.34619 0.411286C7.28892 0.435238 7.23697 0.470332 7.19335 0.514534L2.47482 5.23822Z" fill="white"/>
</svg>
