<svg width="18" height="18" viewBox="0 0 18 18" fill="none" xmlns="http://www.w3.org/2000/svg" fill="#fff">
    <path
        d="M17.0149 13.1743L18 12.3171L17.1359 10.8343L15.8829 11.2543C15.6063 11.0229 15.2952 10.8429 14.9496 10.7143L14.6904 9.42857H12.9621L12.7028 10.7057C12.3572 10.8343 12.0461 11.0143 11.7696 11.2457L10.5166 10.8257L9.65242 12.3086L10.6375 13.1657C10.5684 13.5943 10.5684 13.8171 10.6375 14.2457L9.65242 15.1029L10.5166 16.5857L11.7696 16.1657C12.0461 16.3971 12.3572 16.5771 12.7028 16.7057L12.9621 18H14.6904L14.9496 16.7229C15.2952 16.5943 15.6063 16.4143 15.8829 16.1829L17.1359 16.6029L18 15.12L17.0149 14.2629C17.084 13.8257 17.084 13.6029 17.0149 13.1743ZM13.8262 15.4286C12.8757 15.4286 12.0979 14.6571 12.0979 13.7143C12.0979 12.7714 12.8757 12 13.8262 12C14.7768 12 15.5545 12.7714 15.5545 13.7143C15.5545 14.6571 14.7768 15.4286 13.8262 15.4286ZM6.91311 3.42857V8.06571L8.95247 10.0886L9.85118 8.55429L8.64138 7.36286V3.42857H6.91311ZM15.5545 7.71429C15.5545 5.66833 14.7351 3.70617 13.2766 2.25946C11.8181 0.812753 9.8399 0 7.77724 0C5.33173 0 3.1541 1.13143 1.72828 2.88V0.857143H0V6H5.18483V4.28571H2.81709C3.37444 3.49302 4.11633 2.84538 4.97982 2.39773C5.84332 1.95008 6.80293 1.71564 7.77724 1.71429C11.1128 1.71429 13.8262 4.40571 13.8262 7.71429H15.5545ZM6.79213 13.6371C4.20835 13.2171 2.16899 11.1514 1.79741 8.57143H0.0518482C0.483917 12.4286 3.77628 15.4286 7.77724 15.4286H7.83773L6.79213 13.6371Z" />
</svg>