<svg width="16" height="20" viewBox="0 1 16 18" fill="#fff" xmlns="http://www.w3.org/2000/svg">
    <path
        d="M15.1111 18H0.888889C0.653141 18 0.427048 17.9052 0.260349 17.7364C0.0936505 17.5676 0 17.3387 0 17.1V0.9C0 0.661305 0.0936505 0.432387 0.260349 0.263604C0.427048 0.0948211 0.653141 0 0.888889 0H15.1111C15.3469 0 15.573 0.0948211 15.7397 0.263604C15.9064 0.432387 16 0.661305 16 0.9V17.1C16 17.3387 15.9064 17.5676 15.7397 17.7364C15.573 17.9052 15.3469 18 15.1111 18ZM14.2222 16.2V1.8H1.77778V16.2H14.2222ZM4.44444 6.3H11.5556V8.1H4.44444V6.3ZM4.44444 9.9H11.5556V11.7H4.44444V9.9Z" />
</svg>