<svg width="20" height="20" viewBox="0 0 20 20" fill="none" xmlns="http://www.w3.org/2000/svg">
<path d="M18.4925 10.1583L18.5453 10L18.4925 9.84168C16.9575 5.24353 13.7494 2.16667 10 2.16667C6.25063 2.16667 3.04254 5.24353 1.50755 9.84168L1.45469 10L1.50755 10.1583C3.04241 14.7561 6.24126 17.8333 10 17.8333C13.7587 17.8333 16.9576 14.7561 18.4925 10.1583ZM0.518196 10C2.08689 4.31255 5.81941 0.5 10 0.5C14.1806 0.5 17.9131 4.31256 19.4818 10C17.9131 15.6874 14.1806 19.5 10 19.5C5.81941 19.5 2.08689 15.6874 0.518196 10ZM12.7727 10C12.7727 8.99265 12.4949 8.05826 12.0199 7.36167C11.5468 6.6677 10.8414 6.16667 10 6.16667C9.1586 6.16667 8.45322 6.6677 7.98007 7.36167C7.50512 8.05826 7.22727 8.99265 7.22727 10C7.22727 11.0073 7.50512 11.9417 7.98007 12.6383C8.45322 13.3323 9.1586 13.8333 10 13.8333C10.8414 13.8333 11.5468 13.3323 12.0199 12.6383C12.4949 11.9417 12.7727 11.0073 12.7727 10ZM6.40909 10C6.40909 8.43435 6.84471 7.03533 7.5222 6.04167C8.20169 5.04509 9.08736 4.5 10 4.5C10.9126 4.5 11.7983 5.04509 12.4778 6.04167C13.1553 7.03533 13.5909 8.43435 13.5909 10C13.5909 11.5656 13.1553 12.9647 12.4778 13.9583C11.7983 14.9549 10.9126 15.5 10 15.5C9.08736 15.5 8.20169 14.9549 7.5222 13.9583C6.84471 12.9647 6.40909 11.5656 6.40909 10Z" fill="#404A5F" stroke="#404A5F"/>
<path d="M18 1L3 19" stroke="#404A5F" stroke-width="2" stroke-linecap="round"/>
</svg>
