<svg width="12" height="15" viewBox="0 0 12 15" fill="none" xmlns="http://www.w3.org/2000/svg">
<path d="M6.71984 7.625L6.96975 7.875L6.71984 7.625ZM6.71984 7.625H6.96975H7.57314H6.71984ZM6.71984 7.375H6.96975H7.57239L7.14604 6.94865L6.71984 7.375ZM6.71984 7.375L6.96975 7.125L6.71984 7.375ZM6.46956 8.375L4.9845 9.8595C4.94963 9.89432 4.92197 9.93566 4.90308 9.98117C4.88419 10.0267 4.87445 10.0755 4.87442 10.1247C4.87435 10.2242 4.91381 10.3197 4.98413 10.3901C5.05444 10.4605 5.14985 10.5001 5.24936 10.5002C5.34887 10.5003 5.44433 10.4608 5.51475 10.3905L5.24963 10.1254L5.24944 10.1252L5.24925 10.125L5.24899 10.1247L5.1612 10.0369L6.46956 8.375ZM0.375 7.875H6.26251L6.5126 7.625H0.375C0.408151 7.625 0.439946 7.61183 0.463388 7.58839C0.486831 7.56495 0.5 7.53315 0.5 7.5C0.5 7.46685 0.486831 7.43505 0.463388 7.41161C0.439946 7.38817 0.408151 7.375 0.375 7.375H6.5126L6.26251 7.125H0.375C0.275544 7.125 0.180161 7.16451 0.109835 7.23483C0.0395089 7.30516 0 7.40054 0 7.5C0 7.59946 0.0395089 7.69484 0.109835 7.76516C0.180161 7.83549 0.275544 7.875 0.375 7.875Z" fill="#404A5F" stroke="#404A5F"/>
</svg>
