<svg width="12" height="15" viewBox="0 0 12 15" fill="none" xmlns="http://www.w3.org/2000/svg">
<path d="M0 7.5C0 7.70709 0.167908 7.875 0.375 7.875H6.96977L4.98486 9.85986C4.91455 9.93018 4.87505 10.0255 4.87505 10.125C4.875 10.332 5.04291 10.5 5.25 10.5C5.34947 10.5001 5.44487 10.4606 5.51509 10.3901L8.14009 7.76514C8.14005 7.76518 8.14014 7.76509 8.14009 7.76514C8.28644 7.6187 8.28653 7.38126 8.14009 7.23491L5.51509 4.60991C5.3698 4.46956 5.1394 4.46956 4.99406 4.60991C4.84511 4.75378 4.84099 4.99118 4.98486 5.14014L6.96977 7.125H0.375C0.167908 7.125 0 7.29291 0 7.5ZM10.125 0H1.875C0.839859 0.000961275 0.000961275 0.839859 0 1.875V4.875C0 5.08209 0.167908 5.25 0.375 5.25C0.582092 5.25 0.75 5.08209 0.75 4.875V1.875C0.750687 1.25395 1.25395 0.750687 1.875 0.75H10.125C10.746 0.750687 11.2493 1.25395 11.25 1.875V13.125C11.2493 13.746 10.746 14.2493 10.125 14.25H1.875C1.25395 14.2493 0.750687 13.746 0.75 13.125V10.125C0.75 9.91791 0.582092 9.75 0.375 9.75C0.167908 9.75 0 9.91791 0 10.125V13.125C0.000961275 14.1601 0.839859 14.999 1.875 15H10.125C11.1601 14.999 11.999 14.1601 12 13.125V1.875C11.999 0.839859 11.1601 0.000961275 10.125 0Z" fill="#404A5F"/>
</svg>
