<svg width="50" height="50" viewBox="0 0 50 50" fill="none" xmlns="http://www.w3.org/2000/svg">
<path d="M27.0834 4.1665H22.9167V16.6665H27.0834V4.1665ZM27.0834 33.3332H22.9167V45.8332H27.0834V33.3332ZM45.8334 22.9165V27.0832H33.3334V22.9165H45.8334ZM16.6667 27.0832V22.9165H4.16675V27.0832H16.6667ZM31.2501 14.5832H35.4167V18.7498H31.2501V14.5832ZM39.5834 10.4165H35.4167V14.5832H39.5834V10.4165ZM18.7501 14.5832H14.5834V18.7498H18.7501V14.5832ZM10.4167 10.4165H14.5834V14.5832H10.4167V10.4165ZM31.2501 35.4165H35.4167V39.5832H39.5834V35.4165H35.4167V31.2498H31.2501V35.4165ZM14.5834 35.4165V31.2498H18.7501V35.4165H14.5834V39.5832H10.4167V35.4165H14.5834Z" fill="#0553A4"/>
</svg>
