<svg width="39" height="33" viewBox="0 0 39 33" fill="none" xmlns="http://www.w3.org/2000/svg">
<path d="M1.52136 0.000150012C1.3226 -0.00266106 1.12525 0.0340607 0.940799 0.108181C0.756347 0.182302 0.588465 0.292343 0.446911 0.43191C0.305356 0.571477 0.192952 0.737786 0.11623 0.921171C0.0395089 1.10456 0 1.30136 0 1.50015C0 1.69894 0.0395089 1.89574 0.11623 2.07913C0.192952 2.26251 0.305356 2.42882 0.446911 2.56839C0.588465 2.70796 0.756347 2.818 0.940799 2.89212C1.12525 2.96624 1.3226 3.00296 1.52136 3.00015H17.5214C17.7201 3.00296 17.9175 2.96624 18.1019 2.89212C18.2864 2.818 18.4543 2.70796 18.5958 2.56839C18.7374 2.42882 18.8498 2.26251 18.9265 2.07913C19.0032 1.89574 19.0427 1.69894 19.0427 1.50015C19.0427 1.30136 19.0032 1.10456 18.9265 0.921171C18.8498 0.737786 18.7374 0.571477 18.5958 0.43191C18.4543 0.292343 18.2864 0.182302 18.1019 0.108181C17.9175 0.0340607 17.7201 -0.00266106 17.5214 0.000150012H1.52136ZM1.52136 6.00015C1.3226 5.99734 1.12525 6.03406 0.940799 6.10818C0.756347 6.1823 0.588465 6.29234 0.446911 6.43191C0.305356 6.57148 0.192952 6.73779 0.11623 6.92117C0.0395089 7.10456 0 7.30136 0 7.50015C0 7.69894 0.0395089 7.89574 0.11623 8.07913C0.192952 8.26252 0.305356 8.42882 0.446911 8.56839C0.588465 8.70796 0.756347 8.818 0.940799 8.89212C1.12525 8.96624 1.3226 9.00296 1.52136 9.00015H17.5214C17.7201 9.00296 17.9175 8.96624 18.1019 8.89212C18.2864 8.818 18.4543 8.70796 18.5958 8.56839C18.7374 8.42882 18.8498 8.26252 18.9265 8.07913C19.0032 7.89574 19.0427 7.69894 19.0427 7.50015C19.0427 7.30136 19.0032 7.10456 18.9265 6.92117C18.8498 6.73779 18.7374 6.57148 18.5958 6.43191C18.4543 6.29234 18.2864 6.1823 18.1019 6.10818C17.9175 6.03406 17.7201 5.99734 17.5214 6.00015H1.52136ZM1.52136 12.0001C1.3226 11.9973 1.12525 12.0341 0.940799 12.1082C0.756347 12.1823 0.588465 12.2923 0.446911 12.4319C0.305356 12.5715 0.192952 12.7378 0.11623 12.9212C0.0395089 13.1046 0 13.3014 0 13.5001C0 13.6989 0.0395089 13.8957 0.11623 14.0791C0.192952 14.2625 0.305356 14.4288 0.446911 14.5684C0.588465 14.708 0.756347 14.818 0.940799 14.8921C1.12525 14.9662 1.3226 15.003 1.52136 15.0001H17.5214C17.7201 15.003 17.9175 14.9662 18.1019 14.8921C18.2864 14.818 18.4543 14.708 18.5958 14.5684C18.7374 14.4288 18.8498 14.2625 18.9265 14.0791C19.0032 13.8957 19.0427 13.6989 19.0427 13.5001C19.0427 13.3014 19.0032 13.1046 18.9265 12.9212C18.8498 12.7378 18.7374 12.5715 18.5958 12.4319C18.4543 12.2923 18.2864 12.1823 18.1019 12.1082C17.9175 12.0341 17.7201 11.9973 17.5214 12.0001H1.52136ZM23.5214 12.0001C23.3226 11.9973 23.1253 12.0341 22.9408 12.1082C22.7563 12.1823 22.5885 12.2923 22.4469 12.4319C22.3054 12.5715 22.193 12.7378 22.1162 12.9212C22.0395 13.1046 22 13.3014 22 13.5001C22 13.6989 22.0395 13.8957 22.1162 14.0791C22.193 14.2625 22.3054 14.4288 22.4469 14.5684C22.5885 14.708 22.7563 14.818 22.9408 14.8921C23.1253 14.9662 23.3226 15.003 23.5214 15.0001H36.5214C36.7201 15.003 36.9175 14.9662 37.1019 14.8921C37.2864 14.818 37.4543 14.708 37.5958 14.5684C37.7374 14.4288 37.8498 14.2625 37.9265 14.0791C38.0032 13.8957 38.0427 13.6989 38.0427 13.5001C38.0427 13.3014 38.0032 13.1046 37.9265 12.9212C37.8498 12.7378 37.7374 12.5715 37.5958 12.4319C37.4543 12.2923 37.2864 12.1823 37.1019 12.1082C36.9175 12.0341 36.7201 11.9973 36.5214 12.0001H23.5214ZM1.52136 18.0002C1.3226 17.9973 1.12525 18.0341 0.940799 18.1082C0.756347 18.1823 0.588465 18.2923 0.446911 18.4319C0.305356 18.5715 0.192952 18.7378 0.11623 18.9212C0.0395089 19.1046 0 19.3014 0 19.5002C0 19.6989 0.0395089 19.8957 0.11623 20.0791C0.192952 20.2625 0.305356 20.4288 0.446911 20.5684C0.588465 20.708 0.756347 20.818 0.940799 20.8921C1.12525 20.9662 1.3226 21.003 1.52136 21.0002H17.5214C17.7201 21.003 17.9175 20.9662 18.1019 20.8921C18.2864 20.818 18.4543 20.708 18.5958 20.5684C18.7374 20.4288 18.8498 20.2625 18.9265 20.0791C19.0032 19.8957 19.0427 19.6989 19.0427 19.5002C19.0427 19.3014 19.0032 19.1046 18.9265 18.9212C18.8498 18.7378 18.7374 18.5715 18.5958 18.4319C18.4543 18.2923 18.2864 18.1823 18.1019 18.1082C17.9175 18.0341 17.7201 17.9973 17.5214 18.0002H1.52136ZM23.5214 18.0002C23.3226 17.9973 23.1253 18.0341 22.9408 18.1082C22.7563 18.1823 22.5885 18.2923 22.4469 18.4319C22.3054 18.5715 22.193 18.7378 22.1162 18.9212C22.0395 19.1046 22 19.3014 22 19.5002C22 19.6989 22.0395 19.8957 22.1162 20.0791C22.193 20.2625 22.3054 20.4288 22.4469 20.5684C22.5885 20.708 22.7563 20.818 22.9408 20.8921C23.1253 20.9662 23.3226 21.003 23.5214 21.0002H36.5214C36.7201 21.003 36.9175 20.9662 37.1019 20.8921C37.2864 20.818 37.4543 20.708 37.5958 20.5684C37.7374 20.4288 37.8498 20.2625 37.9265 20.0791C38.0032 19.8957 38.0427 19.6989 38.0427 19.5002C38.0427 19.3014 38.0032 19.1046 37.9265 18.9212C37.8498 18.7378 37.7374 18.5715 37.5958 18.4319C37.4543 18.2923 37.2864 18.1823 37.1019 18.1082C36.9175 18.0341 36.7201 17.9973 36.5214 18.0002H23.5214ZM1.52136 24.0002C1.3226 23.9973 1.12525 24.0341 0.940799 24.1082C0.756347 24.1823 0.588465 24.2923 0.446911 24.4319C0.305356 24.5715 0.192952 24.7378 0.11623 24.9212C0.0395089 25.1046 0 25.3014 0 25.5002C0 25.6989 0.0395089 25.8957 0.11623 26.0791C0.192952 26.2625 0.305356 26.4288 0.446911 26.5684C0.588465 26.708 0.756347 26.818 0.940799 26.8921C1.12525 26.9662 1.3226 27.003 1.52136 27.0002H17.5214C17.7201 27.003 17.9175 26.9662 18.1019 26.8921C18.2864 26.818 18.4543 26.708 18.5958 26.5684C18.7374 26.4288 18.8498 26.2625 18.9265 26.0791C19.0032 25.8957 19.0427 25.6989 19.0427 25.5002C19.0427 25.3014 19.0032 25.1046 18.9265 24.9212C18.8498 24.7378 18.7374 24.5715 18.5958 24.4319C18.4543 24.2923 18.2864 24.1823 18.1019 24.1082C17.9175 24.0341 17.7201 23.9973 17.5214 24.0002H1.52136ZM23.5214 24.0002C23.3226 23.9973 23.1253 24.0341 22.9408 24.1082C22.7563 24.1823 22.5885 24.2923 22.4469 24.4319C22.3054 24.5715 22.193 24.7378 22.1162 24.9212C22.0395 25.1046 22 25.3014 22 25.5002C22 25.6989 22.0395 25.8957 22.1162 26.0791C22.193 26.2625 22.3054 26.4288 22.4469 26.5684C22.5885 26.708 22.7563 26.818 22.9408 26.8921C23.1253 26.9662 23.3226 27.003 23.5214 27.0002H36.5214C36.7201 27.003 36.9175 26.9662 37.1019 26.8921C37.2864 26.818 37.4543 26.708 37.5958 26.5684C37.7374 26.4288 37.8498 26.2625 37.9265 26.0791C38.0032 25.8957 38.0427 25.6989 38.0427 25.5002C38.0427 25.3014 38.0032 25.1046 37.9265 24.9212C37.8498 24.7378 37.7374 24.5715 37.5958 24.4319C37.4543 24.2923 37.2864 24.1823 37.1019 24.1082C36.9175 24.0341 36.7201 23.9973 36.5214 24.0002H23.5214ZM1.52136 30.0002C1.3226 29.9973 1.12525 30.0341 0.940799 30.1082C0.756347 30.1823 0.588465 30.2923 0.446911 30.4319C0.305356 30.5715 0.192952 30.7378 0.11623 30.9212C0.0395089 31.1046 0 31.3014 0 31.5002C0 31.6989 0.0395089 31.8957 0.11623 32.0791C0.192952 32.2625 0.305356 32.4288 0.446911 32.5684C0.588465 32.708 0.756347 32.818 0.940799 32.8921C1.12525 32.9662 1.3226 33.003 1.52136 33.0001H17.5214C17.7201 33.003 17.9175 32.9662 18.1019 32.8921C18.2864 32.818 18.4543 32.708 18.5958 32.5684C18.7374 32.4288 18.8498 32.2625 18.9265 32.0791C19.0032 31.8957 19.0427 31.6989 19.0427 31.5002C19.0427 31.3014 19.0032 31.1046 18.9265 30.9212C18.8498 30.7378 18.7374 30.5715 18.5958 30.4319C18.4543 30.2923 18.2864 30.1823 18.1019 30.1082C17.9175 30.0341 17.7201 29.9973 17.5214 30.0002H1.52136ZM23.5214 30.0002C23.3226 29.9973 23.1253 30.0341 22.9408 30.1082C22.7563 30.1823 22.5885 30.2923 22.4469 30.4319C22.3054 30.5715 22.193 30.7378 22.1162 30.9212C22.0395 31.1046 22 31.3014 22 31.5002C22 31.6989 22.0395 31.8957 22.1162 32.0791C22.193 32.2625 22.3054 32.4288 22.4469 32.5684C22.5885 32.708 22.7563 32.818 22.9408 32.8921C23.1253 32.9662 23.3226 33.003 23.5214 33.0001H36.5214C36.7201 33.003 36.9175 32.9662 37.1019 32.8921C37.2864 32.818 37.4543 32.708 37.5958 32.5684C37.7374 32.4288 37.8498 32.2625 37.9265 32.0791C38.0032 31.8957 38.0427 31.6989 38.0427 31.5002C38.0427 31.3014 38.0032 31.1046 37.9265 30.9212C37.8498 30.7378 37.7374 30.5715 37.5958 30.4319C37.4543 30.2923 37.2864 30.1823 37.1019 30.1082C36.9175 30.0341 36.7201 29.9973 36.5214 30.0002H23.5214Z" fill="#DE1D19"/>
</svg>
