<svg width="86" height="101" viewBox="0 0 86 101" fill="none" xmlns="http://www.w3.org/2000/svg">
<path fill-rule="evenodd" clip-rule="evenodd" d="M35.0988 62.1048C28.1468 56.6419 23.4414 49.9471 24.2277 42.4453C26.4931 20.8307 71.4385 25.5857 80.1813 36.4949C88.9241 47.4041 87.8853 75.0761 76.586 77.0259C72.0798 77.8035 62.4804 75.8987 52.7104 71.9565L58.8428 101H22.6333L35.0988 62.1048Z" fill="#B28B67"/>
<path fill-rule="evenodd" clip-rule="evenodd" d="M65.8788 24.6138C60.931 23.6038 53.7486 23.2613 50.7271 23.493C52.4459 20.7363 53.1279 17.6649 52.5719 14.6745C52.0315 11.7687 50.0919 9.29444 48.2981 6.70177C47.4712 5.50672 46.5342 4.31818 45.1371 3.4041C43.7139 2.47284 41.9124 1.85814 40.0233 1.56487C38.0901 1.26468 36.0686 1.28968 34.1324 1.5621C33.2759 1.6826 32.5073 1.94476 31.6673 2.0905C30.8071 2.23982 30.3898 1.87939 29.7654 1.51716C28.2607 0.644357 26.0548 0.213493 24.1511 0.0592877C22.0153 -0.113644 19.7991 0.102032 17.7622 0.572058C15.7795 1.02963 13.8749 1.77265 12.4414 2.8551C11.8032 3.33693 11.2238 3.88536 10.8473 4.49087C10.6929 4.73935 10.6673 4.88656 10.2969 4.97758C9.95436 5.06185 9.5537 5.06429 9.20016 5.14449C5.78163 5.91959 2.85882 7.68782 1.26736 9.95816C0.338868 11.2827 -0.10095 13.6147 0.0195156 16.2284C0.139981 18.8422 3.66546 25.6623 6.96283 28.1499C9.90609 30.3704 14.2323 31.8357 18.4075 32.4771C15.6362 34.5976 13.7915 37.2474 12.4273 39.9424C10.9456 42.8697 10.0285 45.9114 9.68987 49.0106C9.36821 51.9552 9.33841 55.0691 10.3696 57.9508C11.3342 60.6456 13.3971 62.8564 16.841 64.2589C18.4185 64.9014 20.1157 65.384 21.8228 65.8251C23.5051 66.2598 25.1926 66.6824 26.9548 66.9264C30.2901 67.3879 34.1331 67.3086 36.7022 65.5314C37.6282 64.8908 38.6466 64.0857 39.3221 63.303C39.565 63.0216 39.7115 62.8375 39.4164 62.5624C39.0628 62.2329 38.491 61.9804 38.0368 61.7226C35.447 60.253 33.8439 58.2909 33.4398 55.9593C33.0297 53.5935 33.979 50.54 37.4149 49.5075C41.6561 48.233 46.3269 49.6959 50.0965 51.0596C51.6986 47.2743 54.9881 43.8661 60.1455 42.1297C65.8512 40.2088 72.3985 39.984 78.262 38.3359C79.79 37.9064 81.3462 37.4189 82.4712 36.5438C82.9412 36.1781 83.4927 35.7037 83.6804 35.22C83.927 34.5846 83.3149 34.0518 82.842 33.5565C80.3348 30.93 70.8266 25.6238 65.8788 24.6138Z" fill="#191847"/>
</svg>
