<svg width="20" height="20" viewBox="0 0 20 20" fill="none" xmlns="http://www.w3.org/2000/svg">
<path d="M10 2.66667C13.4455 2.66667 16.5182 5.50667 18.0182 10C16.5182 14.4933 13.4545 17.3333 10 17.3333C6.54545 17.3333 3.48182 14.4933 1.98182 10C3.48182 5.50667 6.55455 2.66667 10 2.66667ZM10 0C5.45455 0 1.57273 4.14667 0 10C1.57273 15.8533 5.45455 20 10 20C14.5455 20 18.4273 15.8533 20 10C18.4273 4.14667 14.5455 0 10 0ZM10 6.66667C11.2545 6.66667 12.2727 8.16 12.2727 10C12.2727 11.84 11.2545 13.3333 10 13.3333C8.74545 13.3333 7.72727 11.84 7.72727 10C7.72727 8.16 8.74545 6.66667 10 6.66667ZM10 4C7.74545 4 5.90909 6.69333 5.90909 10C5.90909 13.3067 7.74545 16 10 16C12.2545 16 14.0909 13.3067 14.0909 10C14.0909 6.69333 12.2545 4 10 4Z" fill="#404A5F"/>
</svg>
