<svg width="12" height="12" viewBox="0 0 12 12" fill="none" xmlns="http://www.w3.org/2000/svg">
<path d="M10.4228 9.16911C10.136 8.89446 9.85693 8.61191 9.58581 8.32181C9.35804 8.09039 9.22089 7.92203 9.22089 7.92203L7.50652 7.1035C8.19287 6.32516 8.57168 5.32318 8.57188 4.28549C8.57188 1.92296 6.64933 0 4.28594 0C1.92255 0 0 1.92296 0 4.28549C0 6.64802 1.92255 8.57098 4.28594 8.57098C5.36538 8.57098 6.34931 8.16692 7.10425 7.50634L7.92286 9.22054C7.92286 9.22054 8.09124 9.35767 8.32268 9.58541C8.55963 9.80765 8.87128 10.1082 9.17007 10.4223L10.0015 11.2745L10.3714 11.67L11.67 10.3715L11.2745 10.0017C11.0424 9.77398 10.7326 9.47154 10.4228 9.16911ZM4.28594 7.34655C2.59789 7.34655 1.22455 5.97336 1.22455 4.28549C1.22455 2.59762 2.59789 1.22443 4.28594 1.22443C5.97399 1.22443 7.34732 2.59762 7.34732 4.28549C7.34732 5.97336 5.97399 7.34655 4.28594 7.34655Z" fill="#A5B1BE"/>
</svg>
