<svg width="4" height="14" viewBox="0 0 4 14" fill="none" xmlns="http://www.w3.org/2000/svg">
<path d="M1.99984 11.0003C2.35346 11.0003 2.6926 11.1408 2.94265 11.3909C3.19269 11.6409 3.33317 11.98 3.33317 12.3337C3.33317 12.6873 3.19269 13.0264 2.94265 13.2765C2.6926 13.5265 2.35346 13.667 1.99984 13.667C1.64622 13.667 1.30708 13.5265 1.05703 13.2765C0.80698 13.0264 0.666504 12.6873 0.666504 12.3337C0.666504 11.98 0.80698 11.6409 1.05703 11.3909C1.30708 11.1408 1.64622 11.0003 1.99984 11.0003ZM1.99984 5.66699C2.35346 5.66699 2.6926 5.80747 2.94265 6.05752C3.19269 6.30757 3.33317 6.6467 3.33317 7.00033C3.33317 7.35395 3.19269 7.69309 2.94265 7.94313C2.6926 8.19318 2.35346 8.33366 1.99984 8.33366C1.64622 8.33366 1.30708 8.19318 1.05703 7.94313C0.80698 7.69309 0.666504 7.35395 0.666504 7.00033C0.666504 6.6467 0.80698 6.30757 1.05703 6.05752C1.30708 5.80747 1.64622 5.66699 1.99984 5.66699ZM3.33317 1.66699C3.33317 1.31337 3.19269 0.974233 2.94265 0.724184C2.6926 0.474135 2.35346 0.33366 1.99984 0.33366C1.64622 0.33366 1.30708 0.474135 1.05703 0.724184C0.80698 0.974233 0.666504 1.31337 0.666504 1.66699C0.666504 2.02061 0.80698 2.35975 1.05703 2.6098C1.30708 2.85985 1.64622 3.00033 1.99984 3.00033C2.35346 3.00033 2.6926 2.85985 2.94265 2.6098C3.19269 2.35975 3.33317 2.02061 3.33317 1.66699Z" fill="#A5B1BE"/>
</svg>
